<svg id="Logo" xmlns="http://www.w3.org/2000/svg" viewBox="0 0 714.95 245.42"><defs><style>.cls-1{fill:#3be081;}.cls-2{fill:#0037ff;}.cls-3{fill:#0cf;}.cls-4{fill:#861dff;}.cls-5{fill:#fc7f10;}</style></defs><path class="cls-1" d="M98.13,130v17.69a49.41,49.41,0,0,0,49.35-49.35H129.79A31.7,31.7,0,0,1,98.13,130Z"/><path class="cls-2" d="M98.13,178.73a31.42,31.42,0,1,1,0-62.84V98.33a49,49,0,1,0-.14,98h.14Z"/><path class="cls-3" d="M98.13,178.73v17.56a49,49,0,0,0,49-49H129.55A31.46,31.46,0,0,1,98.13,178.73Z"/><path class="cls-4" d="M98.13,80.76V98.32a49,49,0,0,0,49-49H129.55A31.46,31.46,0,0,1,98.13,80.76Z"/><path class="cls-5" d="M147.42,80.76V98.32a49,49,0,0,0,49-49H178.85A31.46,31.46,0,0,1,147.42,80.76Z"/><path d="M278.24,122.69h9.05l2.13,4.78a18.88,18.88,0,0,1,3.73-2.66,29.67,29.67,0,0,1,4.36-1.81,18.38,18.38,0,0,1,5.75-.85A21,21,0,0,1,312,124a22.45,22.45,0,0,1,7.29,5.21,25.81,25.81,0,0,1,5,7.93,27.87,27.87,0,0,1,0,20,25.69,25.69,0,0,1-5,7.93,22.52,22.52,0,0,1-7.29,5.22,21.17,21.17,0,0,1-8.73,1.86,17.53,17.53,0,0,1-5.38-.74,29.92,29.92,0,0,1-4-1.6,17.86,17.86,0,0,1-3.41-2.45v21.29H278.24Zm23.42,37.79a11.68,11.68,0,0,0,8.73-3.62q3.53-3.62,3.52-9.69a13.35,13.35,0,0,0-3.52-9.69,12.33,12.33,0,0,0-17.44,0h0q-3.51,3.63-3.51,9.69t3.51,9.69a11.68,11.68,0,0,0,8.73,3.62Z"/><path d="M355.43,172.19a17.63,17.63,0,0,1-6.66-1.22,14.52,14.52,0,0,1-5.22-3.57,16.85,16.85,0,0,1-3.4-5.54,20.05,20.05,0,0,1-1.23-7.24V133.86h-7.45V123.75h3.19q5.86,0,5.86-5.86V111h10.65v11.72h10.64v11.17H351.17v20.23a6.43,6.43,0,0,0,5.9,6.92,5.79,5.79,0,0,0,1,0,13.32,13.32,0,0,0,1.38,0,6.41,6.41,0,0,0,1-.16,4.36,4.36,0,0,0,.85-.32v10.65a9.3,9.3,0,0,1-1.7.53A14.91,14.91,0,0,1,355.43,172.19Z"/><path d="M378.32,116.83a7.09,7.09,0,1,1,4.84-2.08A6.63,6.63,0,0,1,378.32,116.83Zm-6.39,5.86h12.24v49H371.93Z"/><path d="M395.88,122.69h9.05l2.13,4.78a20.13,20.13,0,0,1,3.3-2.66A22.24,22.24,0,0,1,414,123a13,13,0,0,1,4.79-.85,18,18,0,0,1,6.39,1,21,21,0,0,1,4.36,2.19,11.87,11.87,0,0,1,3.09,3.19,19.53,19.53,0,0,1,3.94-3.19,27.89,27.89,0,0,1,4.58-2.19,16.45,16.45,0,0,1,5.85-1c5.33,0,9.58,1.71,12.78,5.11s4.79,8.45,4.79,15.12v29.28H452.31V143.45a9.91,9.91,0,0,0-2.4-7,7.38,7.38,0,0,0-10.42-.76,9.08,9.08,0,0,0-.76.76,9.86,9.86,0,0,0-2.39,7v28.21H424.09V143.45a9.86,9.86,0,0,0-2.39-7,7.39,7.39,0,0,0-10.43-.76,7.68,7.68,0,0,0-.75.76,9.91,9.91,0,0,0-2.4,7v28.21H395.88Z"/><path d="M482.12,116.83a7.11,7.11,0,1,1,4.84-2.08A6.63,6.63,0,0,1,482.12,116.83Zm-6.39,5.86H488v49H475.73Z"/><path d="M497,161.54l21.29-27.14H497V122.69h36.73V132.8L512.46,160h22.35v11.71H497Z"/><path d="M565.69,172.19a22.78,22.78,0,0,1-9.42-2,24.9,24.9,0,0,1-7.77-5.38,26,26,0,0,1-5.33-7.93,25.12,25.12,0,0,1,0-19.48,26,26,0,0,1,5.33-7.93,25.07,25.07,0,0,1,7.77-5.38,23.55,23.55,0,0,1,18.47-.16,22.77,22.77,0,0,1,7.45,5.11,24.45,24.45,0,0,1,5.06,7.93,27,27,0,0,1,1.86,10.17,13,13,0,0,1-.1,1.65c-.08.53-.15,1.05-.22,1.55s-.14,1.1-.21,1.59H554.51a11.36,11.36,0,0,0,3.62,6.07,11,11,0,0,0,7.56,2.45,13.87,13.87,0,0,0,4.1-.53,12.59,12.59,0,0,0,2.82-1.28,9.49,9.49,0,0,0,2.13-1.92h12.78a22.28,22.28,0,0,1-2.93,5.54,23.43,23.43,0,0,1-4.79,5,25.7,25.7,0,0,1-6.39,3.57A21.42,21.42,0,0,1,565.69,172.19Zm11.71-28.74a11.91,11.91,0,0,0-23.42,0Z"/><path d="M598.16,104.59H610.4v67.07H598.16Z"/><path d="M629,189.23q-.84,0-1.65-.06a10.05,10.05,0,0,1-1.33-.16,5.15,5.15,0,0,1-1.27-.32V178.58a9.47,9.47,0,0,0,6.22-1.81,11.74,11.74,0,0,0,3.36-4.58l1.06-2.66-18.63-46.84h12.78l12.24,31.93L653,122.69h12.78q-5.22,13.41-9.48,24.27c-1.21,3.12-2.4,6.18-3.57,9.15s-2.21,5.7-3.14,8.15-1.7,4.49-2.34,6.12-1,2.59-1.17,2.88a62.83,62.83,0,0,1-3.57,7.39,21.45,21.45,0,0,1-3.78,4.95,12.51,12.51,0,0,1-4.36,2.77A15.55,15.55,0,0,1,629,189.23Z"/><path d="M232.89,98.33a36.92,36.92,0,1,0,36.92,36.92,36.91,36.91,0,0,0-36.92-36.92Zm0,61A24.12,24.12,0,1,1,256.72,135c0,.09,0,.18,0,.28A24,24,0,0,1,232.89,159.36Z"/></svg>